<?xml version="1.0" encoding="utf-8" standalone="no"?>
<!DOCTYPE svg PUBLIC "-//W3C//DTD SVG 1.1//EN"
  "http://www.w3.org/Graphics/SVG/1.1/DTD/svg11.dtd">
<svg xmlns:xlink="http://www.w3.org/1999/xlink" width="360pt" height="288pt" viewBox="0 0 360 288" xmlns="http://www.w3.org/2000/svg" version="1.1">
 <metadata>
  <rdf:RDF xmlns:dc="http://purl.org/dc/elements/1.1/" xmlns:cc="http://creativecommons.org/ns#" xmlns:rdf="http://www.w3.org/1999/02/22-rdf-syntax-ns#">
   <cc:Work>
    <dc:type rdf:resource="http://purl.org/dc/dcmitype/StillImage"/>
    <dc:date>2025-07-21T10:59:19.606265</dc:date>
    <dc:format>image/svg+xml</dc:format>
    <dc:creator>
     <cc:Agent>
      <dc:title>Matplotlib v3.9.2, https://matplotlib.org/</dc:title>
     </cc:Agent>
    </dc:creator>
   </cc:Work>
  </rdf:RDF>
 </metadata>
 <defs>
  <style type="text/css">*{stroke-linejoin: round; stroke-linecap: butt}</style>
 </defs>
 <g id="figure_1">
  <g id="patch_1">
   <path d="M 0 288 
L 360 288 
L 360 0 
L 0 0 
z
" style="fill: #ffffff"/>
  </g>
  <g id="axes_1">
   <g id="patch_2">
    <path d="M 56.18 243.16 
L 312.19 243.16 
L 312.19 10.8 
L 56.18 10.8 
z
" style="fill: #ffffff"/>
   </g>
   <g id="PolyCollection_1">
    <defs>
     <path id="m69799b0087" d="M 67.816818 -64.091147 
L 67.816818 -55.401818 
L 106.606212 -149.242133 
L 145.395606 -224.920018 
L 184.185 -233.69344 
L 222.974394 -244.640272 
L 261.763788 -247.032122 
L 300.553182 -234.425102 
L 300.553182 -248.571709 
L 300.553182 -248.571709 
L 261.763788 -257.501603 
L 222.974394 -266.638182 
L 184.185 -257.0874 
L 145.395606 -251.325583 
L 106.606212 -158.570489 
L 67.816818 -64.091147 
z
" style="stroke: #00008b; stroke-opacity: 0.25"/>
    </defs>
    <g clip-path="url(#p5a09b7bd90)">
     <use xlink:href="#m69799b0087" x="0" y="288" style="fill: #00008b; fill-opacity: 0.25; stroke: #00008b; stroke-opacity: 0.25"/>
    </g>
   </g>
   <g id="PolyCollection_2">
    <defs>
     <path id="mbae1245618" d="M 67.816818 -96.299694 
L 67.816818 -93.160972 
L 106.606212 -169.966861 
L 145.395606 -231.707041 
L 184.185 -242.912419 
L 222.974394 -244.351569 
L 261.763788 -240.920013 
L 300.553182 -236.668168 
L 300.553182 -253.147626 
L 300.553182 -253.147626 
L 261.763788 -256.154893 
L 222.974394 -252.354051 
L 184.185 -260.316126 
L 145.395606 -246.52756 
L 106.606212 -176.351134 
L 67.816818 -96.299694 
z
" style="stroke: #0000ff; stroke-opacity: 0.25"/>
    </defs>
    <g clip-path="url(#p5a09b7bd90)">
     <use xlink:href="#mbae1245618" x="0" y="288" style="fill: #0000ff; fill-opacity: 0.25; stroke: #0000ff; stroke-opacity: 0.25"/>
    </g>
   </g>
   <g id="PolyCollection_3">
    <defs>
     <path id="m68f3067931" d="M 67.816818 -118.79586 
L 67.816818 -112.273399 
L 106.606212 -180.07071 
L 145.395606 -230.728496 
L 184.185 -243.82053 
L 222.974394 -244.601058 
L 261.763788 -246.289421 
L 300.553182 -242.122136 
L 300.553182 -250.435101 
L 300.553182 -250.435101 
L 261.763788 -249.821611 
L 222.974394 -250.04062 
L 184.185 -253.34258 
L 145.395606 -236.187288 
L 106.606212 -182.511743 
L 67.816818 -118.79586 
z
" style="stroke: #6a5acd; stroke-opacity: 0.25"/>
    </defs>
    <g clip-path="url(#p5a09b7bd90)">
     <use xlink:href="#m68f3067931" x="0" y="288" style="fill: #6a5acd; fill-opacity: 0.25; stroke: #6a5acd; stroke-opacity: 0.25"/>
    </g>
   </g>
   <g id="PolyCollection_4">
    <defs>
     <path id="m24e7477726" d="M 67.816818 -142.191584 
L 67.816818 -130.850283 
L 106.606212 -194.644166 
L 145.395606 -236.231753 
L 184.185 -241.973092 
L 222.974394 -249.487655 
L 261.763788 -251.621807 
L 300.553182 -251.037675 
L 300.553182 -263.199935 
L 300.553182 -263.199935 
L 261.763788 -255.935792 
L 222.974394 -251.393998 
L 184.185 -247.698059 
L 145.395606 -237.548386 
L 106.606212 -199.380908 
L 67.816818 -142.191584 
z
" style="stroke: #00bfff; stroke-opacity: 0.25"/>
    </defs>
    <g clip-path="url(#p5a09b7bd90)">
     <use xlink:href="#m24e7477726" x="0" y="288" style="fill: #00bfff; fill-opacity: 0.25; stroke: #00bfff; stroke-opacity: 0.25"/>
    </g>
   </g>
   <g id="matplotlib.axis_1">
    <g id="xtick_1">
     <g id="line2d_1">
      <defs>
       <path id="m3725d4230c" d="M 0 0 
L 0 3.5 
" style="stroke: #000000; stroke-width: 0.8"/>
      </defs>
      <g>
       <use xlink:href="#m3725d4230c" x="67.816818" y="243.16" style="stroke: #000000; stroke-width: 0.8"/>
      </g>
     </g>
     <g id="text_1">
      <!-- 0.001 -->
      <g transform="translate(53.502756 257.758438) scale(0.1 -0.1)">
       <defs>
        <path id="DejaVuSans-30" d="M 2034 4250 
Q 1547 4250 1301 3770 
Q 1056 3291 1056 2328 
Q 1056 1369 1301 889 
Q 1547 409 2034 409 
Q 2525 409 2770 889 
Q 3016 1369 3016 2328 
Q 3016 3291 2770 3770 
Q 2525 4250 2034 4250 
z
M 2034 4750 
Q 2819 4750 3233 4129 
Q 3647 3509 3647 2328 
Q 3647 1150 3233 529 
Q 2819 -91 2034 -91 
Q 1250 -91 836 529 
Q 422 1150 422 2328 
Q 422 3509 836 4129 
Q 1250 4750 2034 4750 
z
" transform="scale(0.015625)"/>
        <path id="DejaVuSans-2e" d="M 684 794 
L 1344 794 
L 1344 0 
L 684 0 
L 684 794 
z
" transform="scale(0.015625)"/>
        <path id="DejaVuSans-31" d="M 794 531 
L 1825 531 
L 1825 4091 
L 703 3866 
L 703 4441 
L 1819 4666 
L 2450 4666 
L 2450 531 
L 3481 531 
L 3481 0 
L 794 0 
L 794 531 
z
" transform="scale(0.015625)"/>
       </defs>
       <use xlink:href="#DejaVuSans-30"/>
       <use xlink:href="#DejaVuSans-2e" x="63.623047"/>
       <use xlink:href="#DejaVuSans-30" x="95.410156"/>
       <use xlink:href="#DejaVuSans-30" x="159.033203"/>
       <use xlink:href="#DejaVuSans-31" x="222.65625"/>
      </g>
     </g>
    </g>
    <g id="xtick_2">
     <g id="line2d_2">
      <g>
       <use xlink:href="#m3725d4230c" x="106.606212" y="243.16" style="stroke: #000000; stroke-width: 0.8"/>
      </g>
     </g>
     <g id="text_2">
      <!-- 0.01 -->
      <g transform="translate(95.4734 257.758438) scale(0.1 -0.1)">
       <use xlink:href="#DejaVuSans-30"/>
       <use xlink:href="#DejaVuSans-2e" x="63.623047"/>
       <use xlink:href="#DejaVuSans-30" x="95.410156"/>
       <use xlink:href="#DejaVuSans-31" x="159.033203"/>
      </g>
     </g>
    </g>
    <g id="xtick_3">
     <g id="line2d_3">
      <g>
       <use xlink:href="#m3725d4230c" x="145.395606" y="243.16" style="stroke: #000000; stroke-width: 0.8"/>
      </g>
     </g>
     <g id="text_3">
      <!-- 0.1 -->
      <g transform="translate(137.444044 257.758438) scale(0.1 -0.1)">
       <use xlink:href="#DejaVuSans-30"/>
       <use xlink:href="#DejaVuSans-2e" x="63.623047"/>
       <use xlink:href="#DejaVuSans-31" x="95.410156"/>
      </g>
     </g>
    </g>
    <g id="xtick_4">
     <g id="line2d_4">
      <g>
       <use xlink:href="#m3725d4230c" x="184.185" y="243.16" style="stroke: #000000; stroke-width: 0.8"/>
      </g>
     </g>
     <g id="text_4">
      <!-- 0.25 -->
      <g transform="translate(173.052188 257.758438) scale(0.1 -0.1)">
       <defs>
        <path id="DejaVuSans-32" d="M 1228 531 
L 3431 531 
L 3431 0 
L 469 0 
L 469 531 
Q 828 903 1448 1529 
Q 2069 2156 2228 2338 
Q 2531 2678 2651 2914 
Q 2772 3150 2772 3378 
Q 2772 3750 2511 3984 
Q 2250 4219 1831 4219 
Q 1534 4219 1204 4116 
Q 875 4013 500 3803 
L 500 4441 
Q 881 4594 1212 4672 
Q 1544 4750 1819 4750 
Q 2544 4750 2975 4387 
Q 3406 4025 3406 3419 
Q 3406 3131 3298 2873 
Q 3191 2616 2906 2266 
Q 2828 2175 2409 1742 
Q 1991 1309 1228 531 
z
" transform="scale(0.015625)"/>
        <path id="DejaVuSans-35" d="M 691 4666 
L 3169 4666 
L 3169 4134 
L 1269 4134 
L 1269 2991 
Q 1406 3038 1543 3061 
Q 1681 3084 1819 3084 
Q 2600 3084 3056 2656 
Q 3513 2228 3513 1497 
Q 3513 744 3044 326 
Q 2575 -91 1722 -91 
Q 1428 -91 1123 -41 
Q 819 9 494 109 
L 494 744 
Q 775 591 1075 516 
Q 1375 441 1709 441 
Q 2250 441 2565 725 
Q 2881 1009 2881 1497 
Q 2881 1984 2565 2268 
Q 2250 2553 1709 2553 
Q 1456 2553 1204 2497 
Q 953 2441 691 2322 
L 691 4666 
z
" transform="scale(0.015625)"/>
       </defs>
       <use xlink:href="#DejaVuSans-30"/>
       <use xlink:href="#DejaVuSans-2e" x="63.623047"/>
       <use xlink:href="#DejaVuSans-32" x="95.410156"/>
       <use xlink:href="#DejaVuSans-35" x="159.033203"/>
      </g>
     </g>
    </g>
    <g id="xtick_5">
     <g id="line2d_5">
      <g>
       <use xlink:href="#m3725d4230c" x="222.974394" y="243.16" style="stroke: #000000; stroke-width: 0.8"/>
      </g>
     </g>
     <g id="text_5">
      <!-- 1.0 -->
      <g transform="translate(215.022831 257.758438) scale(0.1 -0.1)">
       <use xlink:href="#DejaVuSans-31"/>
       <use xlink:href="#DejaVuSans-2e" x="63.623047"/>
       <use xlink:href="#DejaVuSans-30" x="95.410156"/>
      </g>
     </g>
    </g>
    <g id="xtick_6">
     <g id="line2d_6">
      <g>
       <use xlink:href="#m3725d4230c" x="261.763788" y="243.16" style="stroke: #000000; stroke-width: 0.8"/>
      </g>
     </g>
     <g id="text_6">
      <!-- 2.0 -->
      <g transform="translate(253.812225 257.758438) scale(0.1 -0.1)">
       <use xlink:href="#DejaVuSans-32"/>
       <use xlink:href="#DejaVuSans-2e" x="63.623047"/>
       <use xlink:href="#DejaVuSans-30" x="95.410156"/>
      </g>
     </g>
    </g>
    <g id="xtick_7">
     <g id="line2d_7">
      <g>
       <use xlink:href="#m3725d4230c" x="300.553182" y="243.16" style="stroke: #000000; stroke-width: 0.8"/>
      </g>
     </g>
     <g id="text_7">
      <!-- 4.0 -->
      <g transform="translate(292.601619 257.758438) scale(0.1 -0.1)">
       <defs>
        <path id="DejaVuSans-34" d="M 2419 4116 
L 825 1625 
L 2419 1625 
L 2419 4116 
z
M 2253 4666 
L 3047 4666 
L 3047 1625 
L 3713 1625 
L 3713 1100 
L 3047 1100 
L 3047 0 
L 2419 0 
L 2419 1100 
L 313 1100 
L 313 1709 
L 2253 4666 
z
" transform="scale(0.015625)"/>
       </defs>
       <use xlink:href="#DejaVuSans-34"/>
       <use xlink:href="#DejaVuSans-2e" x="63.623047"/>
       <use xlink:href="#DejaVuSans-30" x="95.410156"/>
      </g>
     </g>
    </g>
    <g id="text_8">
     <!-- $\beta_i$ -->
     <g transform="translate(179.835 271.538125) scale(0.1 -0.1)">
      <defs>
       <path id="DejaVuSans-Oblique-3b2" d="M 872 216 
L 572 -1331 
L -6 -1331 
L 928 3478 
Q 1206 4903 2538 4903 
Q 3888 4903 3659 3700 
Q 3503 2844 2894 2531 
Q 3713 2250 3553 1416 
Q 3272 -69 1759 -66 
Q 1097 -63 872 216 
z
M 1019 966 
Q 1259 422 1875 425 
Q 2775 425 2966 1406 
Q 3138 2288 1675 2219 
L 1778 2750 
Q 2909 2731 3106 3750 
Q 3241 4438 2509 4434 
Q 1691 4434 1503 3459 
L 1019 966 
z
" transform="scale(0.015625)"/>
       <path id="DejaVuSans-Oblique-69" d="M 1172 4863 
L 1747 4863 
L 1606 4134 
L 1031 4134 
L 1172 4863 
z
M 909 3500 
L 1484 3500 
L 800 0 
L 225 0 
L 909 3500 
z
" transform="scale(0.015625)"/>
      </defs>
      <use xlink:href="#DejaVuSans-Oblique-3b2" transform="translate(0 0.390625)"/>
      <use xlink:href="#DejaVuSans-Oblique-69" transform="translate(63.818359 -16.015625) scale(0.7)"/>
     </g>
    </g>
   </g>
   <g id="matplotlib.axis_2">
    <g id="ytick_1">
     <g id="line2d_8">
      <defs>
       <path id="mf35d229f66" d="M 0 0 
L -3.5 0 
" style="stroke: #0000ff; stroke-width: 0.8"/>
      </defs>
      <g>
       <use xlink:href="#mf35d229f66" x="56.18" y="240.394146" style="fill: #0000ff; stroke: #0000ff; stroke-width: 0.8"/>
      </g>
     </g>
     <g id="text_9">
      <!-- −2.5 -->
      <g style="fill: #0000ff" transform="translate(24.897187 244.193365) scale(0.1 -0.1)">
       <defs>
        <path id="DejaVuSans-2212" d="M 678 2272 
L 4684 2272 
L 4684 1741 
L 678 1741 
L 678 2272 
z
" transform="scale(0.015625)"/>
       </defs>
       <use xlink:href="#DejaVuSans-2212"/>
       <use xlink:href="#DejaVuSans-32" x="83.789062"/>
       <use xlink:href="#DejaVuSans-2e" x="147.412109"/>
       <use xlink:href="#DejaVuSans-35" x="179.199219"/>
      </g>
     </g>
    </g>
    <g id="ytick_2">
     <g id="line2d_9">
      <g>
       <use xlink:href="#mf35d229f66" x="56.18" y="200.044377" style="fill: #0000ff; stroke: #0000ff; stroke-width: 0.8"/>
      </g>
     </g>
     <g id="text_10">
      <!-- −2.0 -->
      <g style="fill: #0000ff" transform="translate(24.897187 203.843596) scale(0.1 -0.1)">
       <use xlink:href="#DejaVuSans-2212"/>
       <use xlink:href="#DejaVuSans-32" x="83.789062"/>
       <use xlink:href="#DejaVuSans-2e" x="147.412109"/>
       <use xlink:href="#DejaVuSans-30" x="179.199219"/>
      </g>
     </g>
    </g>
    <g id="ytick_3">
     <g id="line2d_10">
      <g>
       <use xlink:href="#mf35d229f66" x="56.18" y="159.694608" style="fill: #0000ff; stroke: #0000ff; stroke-width: 0.8"/>
      </g>
     </g>
     <g id="text_11">
      <!-- −1.5 -->
      <g style="fill: #0000ff" transform="translate(24.897187 163.493827) scale(0.1 -0.1)">
       <use xlink:href="#DejaVuSans-2212"/>
       <use xlink:href="#DejaVuSans-31" x="83.789062"/>
       <use xlink:href="#DejaVuSans-2e" x="147.412109"/>
       <use xlink:href="#DejaVuSans-35" x="179.199219"/>
      </g>
     </g>
    </g>
    <g id="ytick_4">
     <g id="line2d_11">
      <g>
       <use xlink:href="#mf35d229f66" x="56.18" y="119.344839" style="fill: #0000ff; stroke: #0000ff; stroke-width: 0.8"/>
      </g>
     </g>
     <g id="text_12">
      <!-- −1.0 -->
      <g style="fill: #0000ff" transform="translate(24.897187 123.144058) scale(0.1 -0.1)">
       <use xlink:href="#DejaVuSans-2212"/>
       <use xlink:href="#DejaVuSans-31" x="83.789062"/>
       <use xlink:href="#DejaVuSans-2e" x="147.412109"/>
       <use xlink:href="#DejaVuSans-30" x="179.199219"/>
      </g>
     </g>
    </g>
    <g id="ytick_5">
     <g id="line2d_12">
      <g>
       <use xlink:href="#mf35d229f66" x="56.18" y="78.99507" style="fill: #0000ff; stroke: #0000ff; stroke-width: 0.8"/>
      </g>
     </g>
     <g id="text_13">
      <!-- −0.5 -->
      <g style="fill: #0000ff" transform="translate(24.897187 82.794289) scale(0.1 -0.1)">
       <use xlink:href="#DejaVuSans-2212"/>
       <use xlink:href="#DejaVuSans-30" x="83.789062"/>
       <use xlink:href="#DejaVuSans-2e" x="147.412109"/>
       <use xlink:href="#DejaVuSans-35" x="179.199219"/>
      </g>
     </g>
    </g>
    <g id="ytick_6">
     <g id="line2d_13">
      <g>
       <use xlink:href="#mf35d229f66" x="56.18" y="38.645301" style="fill: #0000ff; stroke: #0000ff; stroke-width: 0.8"/>
      </g>
     </g>
     <g id="text_14">
      <!-- 0.0 -->
      <g style="fill: #0000ff" transform="translate(33.276875 42.44452) scale(0.1 -0.1)">
       <use xlink:href="#DejaVuSans-30"/>
       <use xlink:href="#DejaVuSans-2e" x="63.623047"/>
       <use xlink:href="#DejaVuSans-30" x="95.410156"/>
      </g>
     </g>
    </g>
    <g id="text_15">
     <!-- FTMLE -->
     <g style="fill: #0000ff" transform="translate(18.8175 143.081563) rotate(-90) scale(0.1 -0.1)">
      <defs>
       <path id="DejaVuSans-46" d="M 628 4666 
L 3309 4666 
L 3309 4134 
L 1259 4134 
L 1259 2759 
L 3109 2759 
L 3109 2228 
L 1259 2228 
L 1259 0 
L 628 0 
L 628 4666 
z
" transform="scale(0.015625)"/>
       <path id="DejaVuSans-54" d="M -19 4666 
L 3928 4666 
L 3928 4134 
L 2272 4134 
L 2272 0 
L 1638 0 
L 1638 4134 
L -19 4134 
L -19 4666 
z
" transform="scale(0.015625)"/>
       <path id="DejaVuSans-4d" d="M 628 4666 
L 1569 4666 
L 2759 1491 
L 3956 4666 
L 4897 4666 
L 4897 0 
L 4281 0 
L 4281 4097 
L 3078 897 
L 2444 897 
L 1241 4097 
L 1241 0 
L 628 0 
L 628 4666 
z
" transform="scale(0.015625)"/>
       <path id="DejaVuSans-4c" d="M 628 4666 
L 1259 4666 
L 1259 531 
L 3531 531 
L 3531 0 
L 628 0 
L 628 4666 
z
" transform="scale(0.015625)"/>
       <path id="DejaVuSans-45" d="M 628 4666 
L 3578 4666 
L 3578 4134 
L 1259 4134 
L 1259 2753 
L 3481 2753 
L 3481 2222 
L 1259 2222 
L 1259 531 
L 3634 531 
L 3634 0 
L 628 0 
L 628 4666 
z
" transform="scale(0.015625)"/>
      </defs>
      <use xlink:href="#DejaVuSans-46"/>
      <use xlink:href="#DejaVuSans-54" x="55.769531"/>
      <use xlink:href="#DejaVuSans-4d" x="116.853516"/>
      <use xlink:href="#DejaVuSans-4c" x="203.132812"/>
      <use xlink:href="#DejaVuSans-45" x="258.845703"/>
     </g>
    </g>
   </g>
   <g id="line2d_14">
    <path d="M 67.816818 229.070417 
L 106.606212 134.116829 
L 145.395606 56.05399 
L 184.185 45.104985 
L 222.974394 35.24778 
L 261.763788 35.193334 
L 300.553182 46.183013 
" clip-path="url(#p5a09b7bd90)" style="fill: none; stroke-dasharray: 5.55,2.4; stroke-dashoffset: 0; stroke: #00008b; stroke-width: 1.5"/>
    <defs>
     <path id="m7db5a745c6" d="M 0 0.5 
C 0.132602 0.5 0.25979 0.447317 0.353553 0.353553 
C 0.447317 0.25979 0.5 0.132602 0.5 0 
C 0.5 -0.132602 0.447317 -0.25979 0.353553 -0.353553 
C 0.25979 -0.447317 0.132602 -0.5 0 -0.5 
C -0.132602 -0.5 -0.25979 -0.447317 -0.353553 -0.353553 
C -0.447317 -0.25979 -0.5 -0.132602 -0.5 0 
C -0.5 0.132602 -0.447317 0.25979 -0.353553 0.353553 
C -0.25979 0.447317 -0.132602 0.5 0 0.5 
z
" style="stroke: #00008b"/>
    </defs>
    <g clip-path="url(#p5a09b7bd90)">
     <use xlink:href="#m7db5a745c6" x="67.816818" y="229.070417" style="fill: #00008b; stroke: #00008b"/>
     <use xlink:href="#m7db5a745c6" x="106.606212" y="134.116829" style="fill: #00008b; stroke: #00008b"/>
     <use xlink:href="#m7db5a745c6" x="145.395606" y="56.05399" style="fill: #00008b; stroke: #00008b"/>
     <use xlink:href="#m7db5a745c6" x="184.185" y="45.104985" style="fill: #00008b; stroke: #00008b"/>
     <use xlink:href="#m7db5a745c6" x="222.974394" y="35.24778" style="fill: #00008b; stroke: #00008b"/>
     <use xlink:href="#m7db5a745c6" x="261.763788" y="35.193334" style="fill: #00008b; stroke: #00008b"/>
     <use xlink:href="#m7db5a745c6" x="300.553182" y="46.183013" style="fill: #00008b; stroke: #00008b"/>
    </g>
   </g>
   <g id="line2d_15">
    <path d="M 67.816818 193.600634 
L 106.606212 114.614831 
L 145.395606 52.437846 
L 184.185 35.928309 
L 222.974394 40.307482 
L 261.763788 40.659002 
L 300.553182 43.859597 
" clip-path="url(#p5a09b7bd90)" style="fill: none; stroke-dasharray: 9.6,2.4,1.5,2.4; stroke-dashoffset: 0; stroke: #0000ff; stroke-width: 1.5"/>
    <defs>
     <path id="mc89bc2bfd0" d="M -0.5 0.5 
L 0.5 0.5 
L 0.5 -0.5 
L -0.5 -0.5 
z
" style="stroke: #0000ff; stroke-linejoin: miter"/>
    </defs>
    <g clip-path="url(#p5a09b7bd90)">
     <use xlink:href="#mc89bc2bfd0" x="67.816818" y="193.600634" style="fill: #0000ff; stroke: #0000ff; stroke-linejoin: miter"/>
     <use xlink:href="#mc89bc2bfd0" x="106.606212" y="114.614831" style="fill: #0000ff; stroke: #0000ff; stroke-linejoin: miter"/>
     <use xlink:href="#mc89bc2bfd0" x="145.395606" y="52.437846" style="fill: #0000ff; stroke: #0000ff; stroke-linejoin: miter"/>
     <use xlink:href="#mc89bc2bfd0" x="184.185" y="35.928309" style="fill: #0000ff; stroke: #0000ff; stroke-linejoin: miter"/>
     <use xlink:href="#mc89bc2bfd0" x="222.974394" y="40.307482" style="fill: #0000ff; stroke: #0000ff; stroke-linejoin: miter"/>
     <use xlink:href="#mc89bc2bfd0" x="261.763788" y="40.659002" style="fill: #0000ff; stroke: #0000ff; stroke-linejoin: miter"/>
     <use xlink:href="#mc89bc2bfd0" x="300.553182" y="43.859597" style="fill: #0000ff; stroke: #0000ff; stroke-linejoin: miter"/>
    </g>
   </g>
   <g id="line2d_16">
    <path d="M 67.816818 173.433259 
L 106.606212 106.786824 
L 145.395606 54.531181 
L 184.185 39.899704 
L 222.974394 41.380048 
L 261.763788 39.551453 
L 300.553182 41.602572 
" clip-path="url(#p5a09b7bd90)" style="fill: none; stroke-dasharray: 1.5,2.475; stroke-dashoffset: 0; stroke: #6a5acd; stroke-width: 1.5"/>
    <defs>
     <path id="mfddd7af750" d="M 0 -0.5 
L -0.5 0.5 
L 0.5 0.5 
z
" style="stroke: #6a5acd; stroke-linejoin: miter"/>
    </defs>
    <g clip-path="url(#p5a09b7bd90)">
     <use xlink:href="#mfddd7af750" x="67.816818" y="173.433259" style="fill: #6a5acd; stroke: #6a5acd; stroke-linejoin: miter"/>
     <use xlink:href="#mfddd7af750" x="106.606212" y="106.786824" style="fill: #6a5acd; stroke: #6a5acd; stroke-linejoin: miter"/>
     <use xlink:href="#mfddd7af750" x="145.395606" y="54.531181" style="fill: #6a5acd; stroke: #6a5acd; stroke-linejoin: miter"/>
     <use xlink:href="#mfddd7af750" x="184.185" y="39.899704" style="fill: #6a5acd; stroke: #6a5acd; stroke-linejoin: miter"/>
     <use xlink:href="#mfddd7af750" x="222.974394" y="41.380048" style="fill: #6a5acd; stroke: #6a5acd; stroke-linejoin: miter"/>
     <use xlink:href="#mfddd7af750" x="261.763788" y="39.551453" style="fill: #6a5acd; stroke: #6a5acd; stroke-linejoin: miter"/>
     <use xlink:href="#mfddd7af750" x="300.553182" y="41.602572" style="fill: #6a5acd; stroke: #6a5acd; stroke-linejoin: miter"/>
    </g>
   </g>
   <g id="line2d_17">
    <path d="M 67.816818 153.209791 
L 106.606212 91.578635 
L 145.395606 51.262515 
L 184.185 42.167283 
L 222.974394 37.797864 
L 261.763788 33.96377 
L 300.553182 29.589969 
" clip-path="url(#p5a09b7bd90)" style="fill: none; stroke: #00bfff; stroke-width: 1.5; stroke-linecap: square"/>
    <defs>
     <path id="m470853e5c0" d="M -0 0.5 
L 0.5 -0.5 
L -0.5 -0.5 
z
" style="stroke: #00bfff; stroke-linejoin: miter"/>
    </defs>
    <g clip-path="url(#p5a09b7bd90)">
     <use xlink:href="#m470853e5c0" x="67.816818" y="153.209791" style="fill: #00bfff; stroke: #00bfff; stroke-linejoin: miter"/>
     <use xlink:href="#m470853e5c0" x="106.606212" y="91.578635" style="fill: #00bfff; stroke: #00bfff; stroke-linejoin: miter"/>
     <use xlink:href="#m470853e5c0" x="145.395606" y="51.262515" style="fill: #00bfff; stroke: #00bfff; stroke-linejoin: miter"/>
     <use xlink:href="#m470853e5c0" x="184.185" y="42.167283" style="fill: #00bfff; stroke: #00bfff; stroke-linejoin: miter"/>
     <use xlink:href="#m470853e5c0" x="222.974394" y="37.797864" style="fill: #00bfff; stroke: #00bfff; stroke-linejoin: miter"/>
     <use xlink:href="#m470853e5c0" x="261.763788" y="33.96377" style="fill: #00bfff; stroke: #00bfff; stroke-linejoin: miter"/>
     <use xlink:href="#m470853e5c0" x="300.553182" y="29.589969" style="fill: #00bfff; stroke: #00bfff; stroke-linejoin: miter"/>
    </g>
   </g>
   <g id="patch_3">
    <path d="M 56.18 243.16 
L 56.18 10.8 
" style="fill: none; stroke: #0000ff; stroke-width: 0.8; stroke-linejoin: miter; stroke-linecap: square"/>
   </g>
   <g id="patch_4">
    <path d="M 312.19 243.16 
L 312.19 10.8 
" style="fill: none"/>
   </g>
   <g id="patch_5">
    <path d="M 56.18 243.16 
L 312.19 243.16 
" style="fill: none; stroke: #000000; stroke-width: 0.8; stroke-linejoin: miter; stroke-linecap: square"/>
   </g>
   <g id="patch_6">
    <path d="M 56.18 10.8 
L 312.19 10.8 
" style="fill: none; stroke: #000000; stroke-width: 0.8; stroke-linejoin: miter; stroke-linecap: square"/>
   </g>
  </g>
  <g id="axes_2">
   <g id="PolyCollection_5">
    <defs>
     <path id="ma260831ac0" d="M 67.816818 -266.516066 
L 67.816818 -266.003178 
L 106.606212 -265.587984 
L 145.395606 -264.977403 
L 184.185 -262.412966 
L 222.974394 -253.571763 
L 261.763788 -160.470478 
L 300.553182 -107.349991 
L 300.553182 -161.422983 
L 300.553182 -161.422983 
L 261.763788 -209.194786 
L 222.974394 -258.383136 
L 184.185 -262.877007 
L 145.395606 -265.441444 
L 106.606212 -266.296257 
L 67.816818 -266.516066 
z
" style="stroke: #8b0000; stroke-opacity: 0.25"/>
    </defs>
    <g clip-path="url(#p5a09b7bd90)">
     <use xlink:href="#ma260831ac0" x="0" y="288" style="fill: #8b0000; fill-opacity: 0.25; stroke: #8b0000; stroke-opacity: 0.25"/>
    </g>
   </g>
   <g id="PolyCollection_6">
    <defs>
     <path id="m3a90d22f9a" d="M 67.816818 -265.685677 
L 67.816818 -264.733171 
L 106.606212 -265.56356 
L 145.395606 -265.343752 
L 184.185 -262.29085 
L 222.974394 -133.653791 
L 261.763788 -96.457238 
L 300.553182 -72.375951 
L 300.553182 -96.432815 
L 300.553182 -96.432815 
L 261.763788 -118.609092 
L 222.974394 -202.722635 
L 184.185 -264.611055 
L 145.395606 -265.734523 
L 106.606212 -266.638182 
L 67.816818 -265.685677 
z
" style="stroke: #ff0000; stroke-opacity: 0.25"/>
    </defs>
    <g clip-path="url(#p5a09b7bd90)">
     <use xlink:href="#m3a90d22f9a" x="0" y="288" style="fill: #ff0000; fill-opacity: 0.25; stroke: #ff0000; stroke-opacity: 0.25"/>
    </g>
   </g>
   <g id="PolyCollection_7">
    <defs>
     <path id="m84bc35bc0c" d="M 67.816818 -256.991013 
L 67.816818 -255.745429 
L 106.606212 -260.459109 
L 145.395606 -265.612407 
L 184.185 -216.741559 
L 222.974394 -80.850805 
L 261.763788 -55.401818 
L 300.553182 -55.401818 
L 300.553182 -77.1629 
L 300.553182 -77.1629 
L 261.763788 -83.830437 
L 222.974394 -105.44498 
L 184.185 -264.024898 
L 145.395606 -266.467219 
L 106.606212 -261.655846 
L 67.816818 -256.991013 
z
" style="stroke: #ff4500; stroke-opacity: 0.25"/>
    </defs>
    <g clip-path="url(#p5a09b7bd90)">
     <use xlink:href="#m84bc35bc0c" x="0" y="288" style="fill: #ff4500; fill-opacity: 0.25; stroke: #ff4500; stroke-opacity: 0.25"/>
    </g>
   </g>
   <g id="PolyCollection_8">
    <defs>
     <path id="m6e87f5698f" d="M 67.816818 -243.729209 
L 67.816818 -238.087447 
L 106.606212 -245.048062 
L 145.395606 -252.79022 
L 184.185 -82.682546 
L 222.974394 -55.401818 
L 261.763788 -55.401818 
L 300.553182 -55.499511 
L 300.553182 -69.054394 
L 300.553182 -69.054394 
L 261.763788 -69.884783 
L 222.974394 -72.375951 
L 184.185 -227.536619 
L 145.395606 -254.548692 
L 106.606212 -249.59078 
L 67.816818 -243.729209 
z
" style="stroke: #ff7f50; stroke-opacity: 0.25"/>
    </defs>
    <g clip-path="url(#p5a09b7bd90)">
     <use xlink:href="#m6e87f5698f" x="0" y="288" style="fill: #ff7f50; fill-opacity: 0.25; stroke: #ff7f50; stroke-opacity: 0.25"/>
    </g>
   </g>
   <g id="matplotlib.axis_3">
    <g id="ytick_7">
     <g id="line2d_18">
      <defs>
       <path id="mcb34ce9831" d="M 0 0 
L 3.5 0 
" style="stroke: #ff0000; stroke-width: 0.8"/>
      </defs>
      <g>
       <use xlink:href="#mcb34ce9831" x="312.19" y="211.472103" style="fill: #ff0000; stroke: #ff0000; stroke-width: 0.8"/>
      </g>
     </g>
     <g id="text_16">
      <!-- 0.2 -->
      <g style="fill: #ff0000" transform="translate(319.19 215.271322) scale(0.1 -0.1)">
       <use xlink:href="#DejaVuSans-30"/>
       <use xlink:href="#DejaVuSans-2e" x="63.623047"/>
       <use xlink:href="#DejaVuSans-32" x="95.410156"/>
      </g>
     </g>
    </g>
    <g id="ytick_8">
     <g id="line2d_19">
      <g>
       <use xlink:href="#mcb34ce9831" x="312.19" y="162.625678" style="fill: #ff0000; stroke: #ff0000; stroke-width: 0.8"/>
      </g>
     </g>
     <g id="text_17">
      <!-- 0.4 -->
      <g style="fill: #ff0000" transform="translate(319.19 166.424897) scale(0.1 -0.1)">
       <use xlink:href="#DejaVuSans-30"/>
       <use xlink:href="#DejaVuSans-2e" x="63.623047"/>
       <use xlink:href="#DejaVuSans-34" x="95.410156"/>
      </g>
     </g>
    </g>
    <g id="ytick_9">
     <g id="line2d_20">
      <g>
       <use xlink:href="#mcb34ce9831" x="312.19" y="113.779254" style="fill: #ff0000; stroke: #ff0000; stroke-width: 0.8"/>
      </g>
     </g>
     <g id="text_18">
      <!-- 0.6 -->
      <g style="fill: #ff0000" transform="translate(319.19 117.578472) scale(0.1 -0.1)">
       <defs>
        <path id="DejaVuSans-36" d="M 2113 2584 
Q 1688 2584 1439 2293 
Q 1191 2003 1191 1497 
Q 1191 994 1439 701 
Q 1688 409 2113 409 
Q 2538 409 2786 701 
Q 3034 994 3034 1497 
Q 3034 2003 2786 2293 
Q 2538 2584 2113 2584 
z
M 3366 4563 
L 3366 3988 
Q 3128 4100 2886 4159 
Q 2644 4219 2406 4219 
Q 1781 4219 1451 3797 
Q 1122 3375 1075 2522 
Q 1259 2794 1537 2939 
Q 1816 3084 2150 3084 
Q 2853 3084 3261 2657 
Q 3669 2231 3669 1497 
Q 3669 778 3244 343 
Q 2819 -91 2113 -91 
Q 1303 -91 875 529 
Q 447 1150 447 2328 
Q 447 3434 972 4092 
Q 1497 4750 2381 4750 
Q 2619 4750 2861 4703 
Q 3103 4656 3366 4563 
z
" transform="scale(0.015625)"/>
       </defs>
       <use xlink:href="#DejaVuSans-30"/>
       <use xlink:href="#DejaVuSans-2e" x="63.623047"/>
       <use xlink:href="#DejaVuSans-36" x="95.410156"/>
      </g>
     </g>
    </g>
    <g id="ytick_10">
     <g id="line2d_21">
      <g>
       <use xlink:href="#mcb34ce9831" x="312.19" y="64.932829" style="fill: #ff0000; stroke: #ff0000; stroke-width: 0.8"/>
      </g>
     </g>
     <g id="text_19">
      <!-- 0.8 -->
      <g style="fill: #ff0000" transform="translate(319.19 68.732048) scale(0.1 -0.1)">
       <defs>
        <path id="DejaVuSans-38" d="M 2034 2216 
Q 1584 2216 1326 1975 
Q 1069 1734 1069 1313 
Q 1069 891 1326 650 
Q 1584 409 2034 409 
Q 2484 409 2743 651 
Q 3003 894 3003 1313 
Q 3003 1734 2745 1975 
Q 2488 2216 2034 2216 
z
M 1403 2484 
Q 997 2584 770 2862 
Q 544 3141 544 3541 
Q 544 4100 942 4425 
Q 1341 4750 2034 4750 
Q 2731 4750 3128 4425 
Q 3525 4100 3525 3541 
Q 3525 3141 3298 2862 
Q 3072 2584 2669 2484 
Q 3125 2378 3379 2068 
Q 3634 1759 3634 1313 
Q 3634 634 3220 271 
Q 2806 -91 2034 -91 
Q 1263 -91 848 271 
Q 434 634 434 1313 
Q 434 1759 690 2068 
Q 947 2378 1403 2484 
z
M 1172 3481 
Q 1172 3119 1398 2916 
Q 1625 2713 2034 2713 
Q 2441 2713 2670 2916 
Q 2900 3119 2900 3481 
Q 2900 3844 2670 4047 
Q 2441 4250 2034 4250 
Q 1625 4250 1398 4047 
Q 1172 3844 1172 3481 
z
" transform="scale(0.015625)"/>
       </defs>
       <use xlink:href="#DejaVuSans-30"/>
       <use xlink:href="#DejaVuSans-2e" x="63.623047"/>
       <use xlink:href="#DejaVuSans-38" x="95.410156"/>
      </g>
     </g>
    </g>
    <g id="ytick_11">
     <g id="line2d_22">
      <g>
       <use xlink:href="#mcb34ce9831" x="312.19" y="16.086404" style="fill: #ff0000; stroke: #ff0000; stroke-width: 0.8"/>
      </g>
     </g>
     <g id="text_20">
      <!-- 1.0 -->
      <g style="fill: #ff0000" transform="translate(319.19 19.885623) scale(0.1 -0.1)">
       <use xlink:href="#DejaVuSans-31"/>
       <use xlink:href="#DejaVuSans-2e" x="63.623047"/>
       <use xlink:href="#DejaVuSans-30" x="95.410156"/>
      </g>
     </g>
    </g>
    <g id="text_21">
     <!-- Testing accuracy -->
     <g style="fill: #ff0000" transform="translate(346.691563 168.705781) rotate(-90) scale(0.1 -0.1)">
      <defs>
       <path id="DejaVuSans-65" d="M 3597 1894 
L 3597 1613 
L 953 1613 
Q 991 1019 1311 708 
Q 1631 397 2203 397 
Q 2534 397 2845 478 
Q 3156 559 3463 722 
L 3463 178 
Q 3153 47 2828 -22 
Q 2503 -91 2169 -91 
Q 1331 -91 842 396 
Q 353 884 353 1716 
Q 353 2575 817 3079 
Q 1281 3584 2069 3584 
Q 2775 3584 3186 3129 
Q 3597 2675 3597 1894 
z
M 3022 2063 
Q 3016 2534 2758 2815 
Q 2500 3097 2075 3097 
Q 1594 3097 1305 2825 
Q 1016 2553 972 2059 
L 3022 2063 
z
" transform="scale(0.015625)"/>
       <path id="DejaVuSans-73" d="M 2834 3397 
L 2834 2853 
Q 2591 2978 2328 3040 
Q 2066 3103 1784 3103 
Q 1356 3103 1142 2972 
Q 928 2841 928 2578 
Q 928 2378 1081 2264 
Q 1234 2150 1697 2047 
L 1894 2003 
Q 2506 1872 2764 1633 
Q 3022 1394 3022 966 
Q 3022 478 2636 193 
Q 2250 -91 1575 -91 
Q 1294 -91 989 -36 
Q 684 19 347 128 
L 347 722 
Q 666 556 975 473 
Q 1284 391 1588 391 
Q 1994 391 2212 530 
Q 2431 669 2431 922 
Q 2431 1156 2273 1281 
Q 2116 1406 1581 1522 
L 1381 1569 
Q 847 1681 609 1914 
Q 372 2147 372 2553 
Q 372 3047 722 3315 
Q 1072 3584 1716 3584 
Q 2034 3584 2315 3537 
Q 2597 3491 2834 3397 
z
" transform="scale(0.015625)"/>
       <path id="DejaVuSans-74" d="M 1172 4494 
L 1172 3500 
L 2356 3500 
L 2356 3053 
L 1172 3053 
L 1172 1153 
Q 1172 725 1289 603 
Q 1406 481 1766 481 
L 2356 481 
L 2356 0 
L 1766 0 
Q 1100 0 847 248 
Q 594 497 594 1153 
L 594 3053 
L 172 3053 
L 172 3500 
L 594 3500 
L 594 4494 
L 1172 4494 
z
" transform="scale(0.015625)"/>
       <path id="DejaVuSans-69" d="M 603 3500 
L 1178 3500 
L 1178 0 
L 603 0 
L 603 3500 
z
M 603 4863 
L 1178 4863 
L 1178 4134 
L 603 4134 
L 603 4863 
z
" transform="scale(0.015625)"/>
       <path id="DejaVuSans-6e" d="M 3513 2113 
L 3513 0 
L 2938 0 
L 2938 2094 
Q 2938 2591 2744 2837 
Q 2550 3084 2163 3084 
Q 1697 3084 1428 2787 
Q 1159 2491 1159 1978 
L 1159 0 
L 581 0 
L 581 3500 
L 1159 3500 
L 1159 2956 
Q 1366 3272 1645 3428 
Q 1925 3584 2291 3584 
Q 2894 3584 3203 3211 
Q 3513 2838 3513 2113 
z
" transform="scale(0.015625)"/>
       <path id="DejaVuSans-67" d="M 2906 1791 
Q 2906 2416 2648 2759 
Q 2391 3103 1925 3103 
Q 1463 3103 1205 2759 
Q 947 2416 947 1791 
Q 947 1169 1205 825 
Q 1463 481 1925 481 
Q 2391 481 2648 825 
Q 2906 1169 2906 1791 
z
M 3481 434 
Q 3481 -459 3084 -895 
Q 2688 -1331 1869 -1331 
Q 1566 -1331 1297 -1286 
Q 1028 -1241 775 -1147 
L 775 -588 
Q 1028 -725 1275 -790 
Q 1522 -856 1778 -856 
Q 2344 -856 2625 -561 
Q 2906 -266 2906 331 
L 2906 616 
Q 2728 306 2450 153 
Q 2172 0 1784 0 
Q 1141 0 747 490 
Q 353 981 353 1791 
Q 353 2603 747 3093 
Q 1141 3584 1784 3584 
Q 2172 3584 2450 3431 
Q 2728 3278 2906 2969 
L 2906 3500 
L 3481 3500 
L 3481 434 
z
" transform="scale(0.015625)"/>
       <path id="DejaVuSans-20" transform="scale(0.015625)"/>
       <path id="DejaVuSans-61" d="M 2194 1759 
Q 1497 1759 1228 1600 
Q 959 1441 959 1056 
Q 959 750 1161 570 
Q 1363 391 1709 391 
Q 2188 391 2477 730 
Q 2766 1069 2766 1631 
L 2766 1759 
L 2194 1759 
z
M 3341 1997 
L 3341 0 
L 2766 0 
L 2766 531 
Q 2569 213 2275 61 
Q 1981 -91 1556 -91 
Q 1019 -91 701 211 
Q 384 513 384 1019 
Q 384 1609 779 1909 
Q 1175 2209 1959 2209 
L 2766 2209 
L 2766 2266 
Q 2766 2663 2505 2880 
Q 2244 3097 1772 3097 
Q 1472 3097 1187 3025 
Q 903 2953 641 2809 
L 641 3341 
Q 956 3463 1253 3523 
Q 1550 3584 1831 3584 
Q 2591 3584 2966 3190 
Q 3341 2797 3341 1997 
z
" transform="scale(0.015625)"/>
       <path id="DejaVuSans-63" d="M 3122 3366 
L 3122 2828 
Q 2878 2963 2633 3030 
Q 2388 3097 2138 3097 
Q 1578 3097 1268 2742 
Q 959 2388 959 1747 
Q 959 1106 1268 751 
Q 1578 397 2138 397 
Q 2388 397 2633 464 
Q 2878 531 3122 666 
L 3122 134 
Q 2881 22 2623 -34 
Q 2366 -91 2075 -91 
Q 1284 -91 818 406 
Q 353 903 353 1747 
Q 353 2603 823 3093 
Q 1294 3584 2113 3584 
Q 2378 3584 2631 3529 
Q 2884 3475 3122 3366 
z
" transform="scale(0.015625)"/>
       <path id="DejaVuSans-75" d="M 544 1381 
L 544 3500 
L 1119 3500 
L 1119 1403 
Q 1119 906 1312 657 
Q 1506 409 1894 409 
Q 2359 409 2629 706 
Q 2900 1003 2900 1516 
L 2900 3500 
L 3475 3500 
L 3475 0 
L 2900 0 
L 2900 538 
Q 2691 219 2414 64 
Q 2138 -91 1772 -91 
Q 1169 -91 856 284 
Q 544 659 544 1381 
z
M 1991 3584 
L 1991 3584 
z
" transform="scale(0.015625)"/>
       <path id="DejaVuSans-72" d="M 2631 2963 
Q 2534 3019 2420 3045 
Q 2306 3072 2169 3072 
Q 1681 3072 1420 2755 
Q 1159 2438 1159 1844 
L 1159 0 
L 581 0 
L 581 3500 
L 1159 3500 
L 1159 2956 
Q 1341 3275 1631 3429 
Q 1922 3584 2338 3584 
Q 2397 3584 2469 3576 
Q 2541 3569 2628 3553 
L 2631 2963 
z
" transform="scale(0.015625)"/>
       <path id="DejaVuSans-79" d="M 2059 -325 
Q 1816 -950 1584 -1140 
Q 1353 -1331 966 -1331 
L 506 -1331 
L 506 -850 
L 844 -850 
Q 1081 -850 1212 -737 
Q 1344 -625 1503 -206 
L 1606 56 
L 191 3500 
L 800 3500 
L 1894 763 
L 2988 3500 
L 3597 3500 
L 2059 -325 
z
" transform="scale(0.015625)"/>
      </defs>
      <use xlink:href="#DejaVuSans-54"/>
      <use xlink:href="#DejaVuSans-65" x="44.083984"/>
      <use xlink:href="#DejaVuSans-73" x="105.607422"/>
      <use xlink:href="#DejaVuSans-74" x="157.707031"/>
      <use xlink:href="#DejaVuSans-69" x="196.916016"/>
      <use xlink:href="#DejaVuSans-6e" x="224.699219"/>
      <use xlink:href="#DejaVuSans-67" x="288.078125"/>
      <use xlink:href="#DejaVuSans-20" x="351.554688"/>
      <use xlink:href="#DejaVuSans-61" x="383.341797"/>
      <use xlink:href="#DejaVuSans-63" x="444.621094"/>
      <use xlink:href="#DejaVuSans-63" x="499.601562"/>
      <use xlink:href="#DejaVuSans-75" x="554.582031"/>
      <use xlink:href="#DejaVuSans-72" x="617.960938"/>
      <use xlink:href="#DejaVuSans-61" x="659.074219"/>
      <use xlink:href="#DejaVuSans-63" x="720.353516"/>
      <use xlink:href="#DejaVuSans-79" x="775.333984"/>
     </g>
    </g>
   </g>
   <g id="line2d_23">
    <path d="M 67.816818 21.733051 
L 106.606212 22.011476 
L 145.395606 22.807672 
L 184.185 25.318379 
L 222.974394 32.894459 
L 261.763788 99.032518 
L 300.553182 160.388512 
" clip-path="url(#p5a09b7bd90)" style="fill: none; stroke-dasharray: 5.55,2.4; stroke-dashoffset: 0; stroke: #8b0000; stroke-width: 1.5"/>
    <defs>
     <path id="m9b70de136d" d="M 0 0.5 
C 0.132602 0.5 0.25979 0.447317 0.353553 0.353553 
C 0.447317 0.25979 0.5 0.132602 0.5 0 
C 0.5 -0.132602 0.447317 -0.25979 0.353553 -0.353553 
C 0.25979 -0.447317 0.132602 -0.5 0 -0.5 
C -0.132602 -0.5 -0.25979 -0.447317 -0.353553 -0.353553 
C -0.447317 -0.25979 -0.5 -0.132602 -0.5 0 
C -0.5 0.132602 -0.447317 0.25979 -0.353553 0.353553 
C -0.25979 0.447317 -0.132602 0.5 0 0.5 
z
" style="stroke: #8b0000"/>
    </defs>
    <g clip-path="url(#p5a09b7bd90)">
     <use xlink:href="#m9b70de136d" x="67.816818" y="21.733051" style="fill: #8b0000; stroke: #8b0000"/>
     <use xlink:href="#m9b70de136d" x="106.606212" y="22.011476" style="fill: #8b0000; stroke: #8b0000"/>
     <use xlink:href="#m9b70de136d" x="145.395606" y="22.807672" style="fill: #8b0000; stroke: #8b0000"/>
     <use xlink:href="#m9b70de136d" x="184.185" y="25.318379" style="fill: #8b0000; stroke: #8b0000"/>
     <use xlink:href="#m9b70de136d" x="222.974394" y="32.894459" style="fill: #8b0000; stroke: #8b0000"/>
     <use xlink:href="#m9b70de136d" x="261.763788" y="99.032518" style="fill: #8b0000; stroke: #8b0000"/>
     <use xlink:href="#m9b70de136d" x="300.553182" y="160.388512" style="fill: #8b0000; stroke: #8b0000"/>
    </g>
   </g>
   <g id="line2d_24">
    <path d="M 67.816818 22.876057 
L 106.606212 21.860052 
L 145.395606 22.416901 
L 184.185 24.380527 
L 222.974394 123.885579 
L 261.763788 180.591393 
L 300.553182 206.313921 
" clip-path="url(#p5a09b7bd90)" style="fill: none; stroke-dasharray: 9.6,2.4,1.5,2.4; stroke-dashoffset: 0; stroke: #ff0000; stroke-width: 1.5"/>
    <defs>
     <path id="m14424a621d" d="M -0.5 0.5 
L 0.5 0.5 
L 0.5 -0.5 
L -0.5 -0.5 
z
" style="stroke: #ff0000; stroke-linejoin: miter"/>
    </defs>
    <g clip-path="url(#p5a09b7bd90)">
     <use xlink:href="#m14424a621d" x="67.816818" y="22.876057" style="fill: #ff0000; stroke: #ff0000; stroke-linejoin: miter"/>
     <use xlink:href="#m14424a621d" x="106.606212" y="21.860052" style="fill: #ff0000; stroke: #ff0000; stroke-linejoin: miter"/>
     <use xlink:href="#m14424a621d" x="145.395606" y="22.416901" style="fill: #ff0000; stroke: #ff0000; stroke-linejoin: miter"/>
     <use xlink:href="#m14424a621d" x="184.185" y="24.380527" style="fill: #ff0000; stroke: #ff0000; stroke-linejoin: miter"/>
     <use xlink:href="#m14424a621d" x="222.974394" y="123.885579" style="fill: #ff0000; stroke: #ff0000; stroke-linejoin: miter"/>
     <use xlink:href="#m14424a621d" x="261.763788" y="180.591393" style="fill: #ff0000; stroke: #ff0000; stroke-linejoin: miter"/>
     <use xlink:href="#m14424a621d" x="300.553182" y="206.313921" style="fill: #ff0000; stroke: #ff0000; stroke-linejoin: miter"/>
    </g>
   </g>
   <g id="line2d_25">
    <path d="M 67.816818 31.85403 
L 106.606212 26.988926 
L 145.395606 21.943091 
L 184.185 38.961185 
L 222.974394 198.513147 
L 261.763788 216.654709 
L 300.553182 224.636215 
" clip-path="url(#p5a09b7bd90)" style="fill: none; stroke-dasharray: 1.5,2.475; stroke-dashoffset: 0; stroke: #ff4500; stroke-width: 1.5"/>
    <defs>
     <path id="mc624453c92" d="M 0 -0.5 
L -0.5 0.5 
L 0.5 0.5 
z
" style="stroke: #ff4500; stroke-linejoin: miter"/>
    </defs>
    <g clip-path="url(#p5a09b7bd90)">
     <use xlink:href="#mc624453c92" x="67.816818" y="31.85403" style="fill: #ff4500; stroke: #ff4500; stroke-linejoin: miter"/>
     <use xlink:href="#mc624453c92" x="106.606212" y="26.988926" style="fill: #ff4500; stroke: #ff4500; stroke-linejoin: miter"/>
     <use xlink:href="#mc624453c92" x="145.395606" y="21.943091" style="fill: #ff4500; stroke: #ff4500; stroke-linejoin: miter"/>
     <use xlink:href="#mc624453c92" x="184.185" y="38.961185" style="fill: #ff4500; stroke: #ff4500; stroke-linejoin: miter"/>
     <use xlink:href="#mc624453c92" x="222.974394" y="198.513147" style="fill: #ff4500; stroke: #ff4500; stroke-linejoin: miter"/>
     <use xlink:href="#mc624453c92" x="261.763788" y="216.654709" style="fill: #ff4500; stroke: #ff4500; stroke-linejoin: miter"/>
     <use xlink:href="#mc624453c92" x="300.553182" y="224.636215" style="fill: #ff4500; stroke: #ff4500; stroke-linejoin: miter"/>
    </g>
   </g>
   <g id="line2d_26">
    <path d="M 67.816818 47.460463 
L 106.606212 40.538925 
L 145.395606 34.306121 
L 184.185 158.131807 
L 222.974394 225.964837 
L 261.763788 225.383565 
L 300.553182 225.559412 
" clip-path="url(#p5a09b7bd90)" style="fill: none; stroke: #ff7f50; stroke-width: 1.5; stroke-linecap: square"/>
    <defs>
     <path id="m42c2bbde00" d="M -0 0.5 
L 0.5 -0.5 
L -0.5 -0.5 
z
" style="stroke: #ff7f50; stroke-linejoin: miter"/>
    </defs>
    <g clip-path="url(#p5a09b7bd90)">
     <use xlink:href="#m42c2bbde00" x="67.816818" y="47.460463" style="fill: #ff7f50; stroke: #ff7f50; stroke-linejoin: miter"/>
     <use xlink:href="#m42c2bbde00" x="106.606212" y="40.538925" style="fill: #ff7f50; stroke: #ff7f50; stroke-linejoin: miter"/>
     <use xlink:href="#m42c2bbde00" x="145.395606" y="34.306121" style="fill: #ff7f50; stroke: #ff7f50; stroke-linejoin: miter"/>
     <use xlink:href="#m42c2bbde00" x="184.185" y="158.131807" style="fill: #ff7f50; stroke: #ff7f50; stroke-linejoin: miter"/>
     <use xlink:href="#m42c2bbde00" x="222.974394" y="225.964837" style="fill: #ff7f50; stroke: #ff7f50; stroke-linejoin: miter"/>
     <use xlink:href="#m42c2bbde00" x="261.763788" y="225.383565" style="fill: #ff7f50; stroke: #ff7f50; stroke-linejoin: miter"/>
     <use xlink:href="#m42c2bbde00" x="300.553182" y="225.559412" style="fill: #ff7f50; stroke: #ff7f50; stroke-linejoin: miter"/>
    </g>
   </g>
   <g id="patch_7">
    <path d="M 56.18 243.16 
L 56.18 10.8 
" style="fill: none"/>
   </g>
   <g id="patch_8">
    <path d="M 312.19 243.16 
L 312.19 10.8 
" style="fill: none; stroke: #ff0000; stroke-width: 0.8; stroke-linejoin: miter; stroke-linecap: square"/>
   </g>
   <g id="patch_9">
    <path d="M 56.18 243.16 
L 312.19 243.16 
" style="fill: none; stroke: #000000; stroke-width: 0.8; stroke-linejoin: miter; stroke-linecap: square"/>
   </g>
   <g id="patch_10">
    <path d="M 56.18 10.8 
L 312.19 10.8 
" style="fill: none; stroke: #000000; stroke-width: 0.8; stroke-linejoin: miter; stroke-linecap: square"/>
   </g>
  </g>
  <g id="legend_1">
   <g id="line2d_27">
    <path d="M 122.075 171.785937 
L 132.075 171.785937 
L 142.075 171.785937 
" style="fill: none; stroke-dasharray: 5.55,2.4; stroke-dashoffset: 0; stroke: #00008b; stroke-width: 1.5"/>
    <g>
     <use xlink:href="#m7db5a745c6" x="132.075" y="171.785937" style="fill: #00008b; stroke: #00008b"/>
    </g>
   </g>
   <g id="text_22">
    <!-- 2 -->
    <g transform="translate(150.075 175.285937) scale(0.1 -0.1)">
     <use xlink:href="#DejaVuSans-32"/>
    </g>
   </g>
   <g id="line2d_28">
    <path d="M 122.075 186.464062 
L 132.075 186.464062 
L 142.075 186.464062 
" style="fill: none; stroke-dasharray: 9.6,2.4,1.5,2.4; stroke-dashoffset: 0; stroke: #0000ff; stroke-width: 1.5"/>
    <g>
     <use xlink:href="#mc89bc2bfd0" x="132.075" y="186.464062" style="fill: #0000ff; stroke: #0000ff; stroke-linejoin: miter"/>
    </g>
   </g>
   <g id="text_23">
    <!-- 3 -->
    <g transform="translate(150.075 189.964062) scale(0.1 -0.1)">
     <defs>
      <path id="DejaVuSans-33" d="M 2597 2516 
Q 3050 2419 3304 2112 
Q 3559 1806 3559 1356 
Q 3559 666 3084 287 
Q 2609 -91 1734 -91 
Q 1441 -91 1130 -33 
Q 819 25 488 141 
L 488 750 
Q 750 597 1062 519 
Q 1375 441 1716 441 
Q 2309 441 2620 675 
Q 2931 909 2931 1356 
Q 2931 1769 2642 2001 
Q 2353 2234 1838 2234 
L 1294 2234 
L 1294 2753 
L 1863 2753 
Q 2328 2753 2575 2939 
Q 2822 3125 2822 3475 
Q 2822 3834 2567 4026 
Q 2313 4219 1838 4219 
Q 1578 4219 1281 4162 
Q 984 4106 628 3988 
L 628 4550 
Q 988 4650 1302 4700 
Q 1616 4750 1894 4750 
Q 2613 4750 3031 4423 
Q 3450 4097 3450 3541 
Q 3450 3153 3228 2886 
Q 3006 2619 2597 2516 
z
" transform="scale(0.015625)"/>
     </defs>
     <use xlink:href="#DejaVuSans-33"/>
    </g>
   </g>
   <g id="line2d_29">
    <path d="M 122.075 201.142187 
L 132.075 201.142187 
L 142.075 201.142187 
" style="fill: none; stroke-dasharray: 1.5,2.475; stroke-dashoffset: 0; stroke: #6a5acd; stroke-width: 1.5"/>
    <g>
     <use xlink:href="#mfddd7af750" x="132.075" y="201.142187" style="fill: #6a5acd; stroke: #6a5acd; stroke-linejoin: miter"/>
    </g>
   </g>
   <g id="text_24">
    <!-- 5 -->
    <g transform="translate(150.075 204.642187) scale(0.1 -0.1)">
     <use xlink:href="#DejaVuSans-35"/>
    </g>
   </g>
   <g id="line2d_30">
    <path d="M 122.075 215.820312 
L 132.075 215.820312 
L 142.075 215.820312 
" style="fill: none; stroke: #00bfff; stroke-width: 1.5; stroke-linecap: square"/>
    <g>
     <use xlink:href="#m470853e5c0" x="132.075" y="215.820312" style="fill: #00bfff; stroke: #00bfff; stroke-linejoin: miter"/>
    </g>
   </g>
   <g id="text_25">
    <!-- 10 -->
    <g transform="translate(150.075 219.320312) scale(0.1 -0.1)">
     <use xlink:href="#DejaVuSans-31"/>
     <use xlink:href="#DejaVuSans-30" x="63.623047"/>
    </g>
   </g>
   <g id="line2d_31">
    <path d="M 182.8 171.785937 
L 192.8 171.785937 
L 202.8 171.785937 
" style="fill: none; stroke-dasharray: 5.55,2.4; stroke-dashoffset: 0; stroke: #8b0000; stroke-width: 1.5"/>
    <g>
     <use xlink:href="#m9b70de136d" x="192.8" y="171.785937" style="fill: #8b0000; stroke: #8b0000"/>
    </g>
   </g>
   <g id="text_26">
    <!-- 2 -->
    <g transform="translate(210.8 175.285937) scale(0.1 -0.1)">
     <use xlink:href="#DejaVuSans-32"/>
    </g>
   </g>
   <g id="line2d_32">
    <path d="M 182.8 186.464062 
L 192.8 186.464062 
L 202.8 186.464062 
" style="fill: none; stroke-dasharray: 9.6,2.4,1.5,2.4; stroke-dashoffset: 0; stroke: #ff0000; stroke-width: 1.5"/>
    <g>
     <use xlink:href="#m14424a621d" x="192.8" y="186.464062" style="fill: #ff0000; stroke: #ff0000; stroke-linejoin: miter"/>
    </g>
   </g>
   <g id="text_27">
    <!-- 3 -->
    <g transform="translate(210.8 189.964062) scale(0.1 -0.1)">
     <use xlink:href="#DejaVuSans-33"/>
    </g>
   </g>
   <g id="line2d_33">
    <path d="M 182.8 201.142187 
L 192.8 201.142187 
L 202.8 201.142187 
" style="fill: none; stroke-dasharray: 1.5,2.475; stroke-dashoffset: 0; stroke: #ff4500; stroke-width: 1.5"/>
    <g>
     <use xlink:href="#mc624453c92" x="192.8" y="201.142187" style="fill: #ff4500; stroke: #ff4500; stroke-linejoin: miter"/>
    </g>
   </g>
   <g id="text_28">
    <!-- 5 -->
    <g transform="translate(210.8 204.642187) scale(0.1 -0.1)">
     <use xlink:href="#DejaVuSans-35"/>
    </g>
   </g>
   <g id="line2d_34">
    <path d="M 182.8 215.820312 
L 192.8 215.820312 
L 202.8 215.820312 
" style="fill: none; stroke: #ff7f50; stroke-width: 1.5; stroke-linecap: square"/>
    <g>
     <use xlink:href="#m42c2bbde00" x="192.8" y="215.820312" style="fill: #ff7f50; stroke: #ff7f50; stroke-linejoin: miter"/>
    </g>
   </g>
   <g id="text_29">
    <!-- 10 -->
    <g transform="translate(210.8 219.320312) scale(0.1 -0.1)">
     <use xlink:href="#DejaVuSans-31"/>
     <use xlink:href="#DejaVuSans-30" x="63.623047"/>
    </g>
   </g>
  </g>
 </g>
 <defs>
  <clipPath id="p5a09b7bd90">
   <rect x="56.18" y="10.8" width="256.01" height="232.36"/>
  </clipPath>
 </defs>
</svg>
